<svg xmlns="http://www.w3.org/2000/svg" viewBox="0 0 400 200" preserveAspectRatio="xMidYMid meet">
<defs>
<style>
.k{stroke:#1a2733;stroke-width:1.5;stroke-linejoin:round;stroke-linecap:round;fill:none}
.f{stroke:#1a2733;stroke-width:1.2;fill:#fff}
.eye{fill:#1a2733}
.pup{fill:#fff}
.gil{stroke:#1a2733;stroke-width:1;fill:none;opacity:.5}
.dot{fill:#1a2733;opacity:.75}
.sc{stroke:#1a2733;stroke-width:.6;fill:none;opacity:.35}
.txt{font-family:sans-serif;font-size:11px;fill:#455}
</style>

</defs>

<path class="f" d="M40,110 Q55,72 130,72 Q230,72 305,78 L355,60 L346,110 L355,160 L305,142 Q230,148 130,148 Q55,148 40,110 Z"/>
<!-- vertikale dunkle Streifen (Zander-Bänderung) -->
<path class="dot" d="M110,78 L108,142 L118,142 L120,78 Z" opacity=".35"/>
<path class="dot" d="M155,74 L152,146 L162,146 L165,74 Z" opacity=".35"/>
<path class="dot" d="M200,74 L197,148 L207,148 L210,74 Z" opacity=".35"/>
<path class="dot" d="M245,76 L242,144 L252,144 L255,76 Z" opacity=".35"/>
<!-- 2 getrennte Rückenflossen: vordere stachelig -->
<path class="f" d="M105,72 Q120,35 175,32 Q210,32 220,55 L220,72 Q170,68 105,72 Z"/>
<path class="k" d="M120,72 L128,42 M135,72 L142,40 M150,72 L156,38 M165,72 L170,38 M180,72 L184,40 M195,72 L198,45 M210,70 L212,50"/>
<!-- hintere weicher -->
<path class="f" d="M235,72 Q260,45 300,55 Q305,68 302,78 Q265,74 235,72 Z"/>
<!-- Afterflosse -->
<path class="f" d="M235,148 Q265,175 300,158 L285,143 Z"/>
<!-- Brustflosse -->
<path class="f" d="M95,125 Q105,155 138,145 L120,128 Z"/>
<path class="gil" d="M70,85 Q78,111.5 70,138"/>
<circle class="eye" cx="60" cy="96" r="3.5"/><circle class="pup" cx="60.6" cy="95.6" r="1.4"/>

</svg>